<svg xmlns="http://www.w3.org/2000/svg" viewBox="16310.938 7302 57.236 93.901"><defs><style>.cls-1{fill:#cc0da0}.cls-2{filter:url(#Path_2357)}</style><filter id="Path_2357" x="16310.938" y="7302" width="57.236" height="93.901" filterUnits="userSpaceOnUse"><feOffset dy="3"/><feGaussianBlur stdDeviation="3" result="blur"/><feFlood flood-opacity=".161"/><feComposite operator="in" in2="blur"/><feComposite in="SourceGraphic"/></filter></defs><g class="cls-2"><path id="Path_2357-2" data-name="Path 2357" class="cls-1" d="M64.016 40.84c-.534-4.408-9.4-26-9.465-26.138a3.35 3.35 0 0 0-3.118-2.521 2.965 2.965 0 0 0-2.356 1.181 4.368 4.368 0 0 0-.558 3.829l2.764 13.453 2.148 9.53-7.107 1.647c1.745-9.055 1.745-9.227 1.744-9.3A3.344 3.344 0 0 0 47.175 30a3.189 3.189 0 0 0-2.307-1.014 3.084 3.084 0 0 0-2.968 2.636L37.228 45.97a3.969 3.969 0 0 0 1.412 4.459 3.957 3.957 0 0 0 3.766.609l8.027-1.454.009.057-2.261 4.785-7.839-1.618-11.212-1.327-.07-.007a3.22 3.22 0 0 0-4.05 2.313c-.4 1.711.912 2.979 2.391 3.478a1.138 1.138 0 0 0 .142.037l12.319 2.381 11.95 4.148.434 8.679c-1.03 4.1-2.714 10.666-2.953 11.268a2.964 2.964 0 0 0 .116 2.925 2.764 2.764 0 0 0 2.312 1.379 2.8 2.8 0 0 0 2.4-1.522c.682-1.106 4.562-11.511 4.863-12.361.518-1.461 1.821-11.521 1.82-12.271.024-.265.344-1.345.626-2.3.494-1.672 1.172-3.96 1.536-5.935.668-3.593 1.577-8.502 1.05-12.853zm-3.209 12.455c-.343 1.861-1 4.085-1.481 5.709a13.809 13.809 0 0 0-.715 2.886c-.023.965-1.34 10.568-1.7 11.574-.631 1.783-4.174 11.122-4.663 11.944-.347.562-.725.545-.963.152a.782.782 0 0 1-.044-.768c.3-.575 1.892-6.792 3.175-11.906a1.091 1.091 0 0 0 .031-.322l-.479-9.583a1.1 1.1 0 0 0-.734-.981l-12.726-4.421a.991.991 0 0 0-.151-.041l-12.312-2.379c-.284-.11-.987-.463-.892-.872.137-.587.682-.827 1.513-.647.039.008.079.015.118.019l11.208 1.32 8.593 1.777a1.1 1.1 0 0 0 1.217-.607l2.777-5.877a1.089 1.089 0 0 0 .091-.648l-.247-1.5a1.1 1.1 0 0 0-1.281-.9l-9.233 1.672a1.033 1.033 0 0 0-.232.069 1.7 1.7 0 0 1-.608.107 1.879 1.879 0 0 1-1.747-2.415l4.693-14.4a1.059 1.059 0 0 0 .03-.114c.091-.432.308-.945.825-.945a1 1 0 0 1 .707.323 1.165 1.165 0 0 1 .3.856c-.1.628-1.259 6.7-2.03 10.694a1.1 1.1 0 0 0 1.328 1.28l9.822-2.277a1.1 1.1 0 0 0 .825-1.313l-2.388-10.58-2.773-13.49a2.361 2.361 0 0 1 .159-1.984.772.772 0 0 1 .614-.325c.436 0 .82.379 1.058 1.087 1.75 4.232 8.912 22.1 9.342 25.636.484 4.017-.39 8.741-1.027 12.19z" transform="translate(16295 7295.82)"/></g></svg>