<svg xmlns="http://www.w3.org/2000/svg" viewBox="15724 7301 85.647 90.5"><defs><style>.cls-1{fill:#eb8500}.cls-2{filter:url(#medal)}</style><filter id="medal" x="15724" y="7301" width="85.647" height="90.5" filterUnits="userSpaceOnUse"><feOffset dy="3"/><feGaussianBlur stdDeviation="3" result="blur"/><feFlood flood-opacity=".161"/><feComposite operator="in" in2="blur"/><feComposite in="SourceGraphic"/></filter></defs><g class="cls-2"><path id="medal-2" data-name="medal" class="cls-1" d="M36.163 37.85a19.168 19.168 0 0 1 5.956 1.032L18.049 2.169a1.245 1.245 0 0 0-1.043-.569H2.92a.592.592 0 0 0-.483.921L27.12 40.168a19.3 19.3 0 0 1 9.044-2.321zM69.4 1.6H55.318a1.249 1.249 0 0 0-1.042.569L39.132 25.263l7.922 12.083 22.83-34.825A.593.593 0 0 0 69.4 1.6zM36.163 41.878a16.113 16.113 0 1 0 15.845 16.111 15.981 15.981 0 0 0-15.845-16.111zm8.366 16.582a.54.54 0 0 1-.087.838.7.7 0 0 0-.193.921.536.536 0 0 1-.257.8.691.691 0 0 0-.376.861.536.536 0 0 1-.411.73.69.69 0 0 0-.542.76.531.531 0 0 1-.555.624.683.683 0 0 0-.688.629.53.53 0 0 1-.668.5.682.682 0 0 0-.8.471.524.524 0 0 1-.758.342.67.67 0 0 0-.879.289.522.522 0 0 1-.812.174.665.665 0 0 0-.918.1.52.52 0 0 1-.827 0 .664.664 0 0 0-.918-.1.523.523 0 0 1-.812-.174.669.669 0 0 0-.879-.289.526.526 0 0 1-.758-.342.68.68 0 0 0-.8-.471.523.523 0 0 1-.668-.5.678.678 0 0 0-.686-.632.53.53 0 0 1-.555-.624.687.687 0 0 0-.542-.76.532.532 0 0 1-.411-.73.69.69 0 0 0-.376-.861.541.541 0 0 1-.257-.8.7.7 0 0 0-.193-.921.541.541 0 0 1-.087-.838.7.7 0 0 0 0-.941.539.539 0 0 1 .087-.838.7.7 0 0 0 .193-.921.536.536 0 0 1 .257-.8.691.691 0 0 0 .376-.861.536.536 0 0 1 .411-.73.69.69 0 0 0 .542-.76.531.531 0 0 1 .555-.624.683.683 0 0 0 .688-.629.53.53 0 0 1 .668-.5.682.682 0 0 0 .8-.471.524.524 0 0 1 .758-.342.67.67 0 0 0 .879-.289.522.522 0 0 1 .812-.174.665.665 0 0 0 .918-.1.52.52 0 0 1 .827 0 .664.664 0 0 0 .918.1.523.523 0 0 1 .812.174.669.669 0 0 0 .879.289.525.525 0 0 1 .758.342.68.68 0 0 0 .8.471.523.523 0 0 1 .668.5.678.678 0 0 0 .688.629.53.53 0 0 1 .555.624.687.687 0 0 0 .542.76.532.532 0 0 1 .411.73.69.69 0 0 0 .376.861.541.541 0 0 1 .257.8.7.7 0 0 0 .193.921.541.541 0 0 1 .087.838.7.7 0 0 0 0 .947z" transform="translate(15730.66 7305.4)"/></g></svg>