<svg xmlns="http://www.w3.org/2000/svg" viewBox="16119 7301 64.396 90.5"><defs><style>.cls-1{fill:#3963eb}.cls-2{filter:url(#mic)}</style><filter id="mic" x="16119" y="7301" width="64.396" height="90.5" filterUnits="userSpaceOnUse"><feOffset dy="3"/><feGaussianBlur stdDeviation="3" result="blur"/><feFlood flood-opacity=".161"/><feComposite operator="in" in2="blur"/><feComposite in="SourceGraphic"/></filter></defs><g class="cls-2"><path id="mic-2" data-name="mic" class="cls-1" d="M52.155 27.706V37.7c0 8.106-5.956 16.779-19.57 17.975v9.575h9.425a1.454 1.454 0 0 1 1.45 1.45v4.35a1.454 1.454 0 0 1-1.45 1.45h-26.1a1.454 1.454 0 0 1-1.45-1.45V66.7a1.453 1.453 0 0 1 1.445-1.45h9.43v-9.575C11.712 54.479 5.76 45.8 5.76 37.7v-9.994a1.451 1.451 0 0 1 1.45-1.45h2.175a1.454 1.454 0 0 1 1.45 1.45V37.7c0 4.844 3.818 13.05 18.125 13.05s18.125-8.206 18.125-13.05v-9.994a1.45 1.45 0 0 1 1.445-1.45h2.18a1.445 1.445 0 0 1 1.445 1.45zM28.96 43.5c8.505 0 10.875-3.5 10.875-5.8V26.252h-21.75V37.7c0 2.3 2.363 5.8 10.875 5.8zM39.835 5.8c0-2.309-2.37-5.8-10.875-5.8S18.085 3.491 18.085 5.8v15.377h21.75z" transform="translate(16122.24 7307)"/></g></svg>