<svg xmlns="http://www.w3.org/2000/svg" viewBox="15915 7301 87.1 90.5"><defs><style>.cls-1{fill:#138364}.cls-2{filter:url(#tree)}</style><filter id="tree" x="15915" y="7301" width="87.1" height="90.5" filterUnits="userSpaceOnUse"><feOffset dy="3"/><feGaussianBlur stdDeviation="3" result="blur"/><feFlood flood-opacity=".161"/><feComposite operator="in" in2="blur"/><feComposite in="SourceGraphic"/></filter></defs><g class="cls-2"><path id="tree-2" data-name="tree" class="cls-1" d="M69.1 36.25c0-4.935-2.619-9.484-7.018-13.129-.006 0-.013 0-.017-.011C60.814 10.161 48.981 0 34.55 0S8.285 10.161 7.035 23.109c0 .007-.011.007-.017.011C2.619 26.768 0 31.318 0 36.25 0 47.531 13.636 56.8 31.095 57.891v3.734c0 3.625-6.292 6.928-6.292 6.928a.838.838 0 0 0-.376 1S25.48 72.5 27.64 72.5s3.883-1.812 8.2-1.812a26.942 26.942 0 0 1 8.426 1.566 1.136 1.136 0 0 0 1.136-.265l2.477-2.6a.439.439 0 0 0-.16-.768s-6.26-2.465-6.26-7V57.56C57.227 55.549 69.1 46.772 69.1 36.25zm-62.19 0c0-3.693 2.654-7.051 6.986-9.611-.035-.421-.076-.841-.076-1.264 0-10.012 9.28-18.125 20.73-18.125s20.73 8.113 20.73 18.125c0 .424-.041.845-.073 1.264 4.33 2.56 6.983 5.916 6.983 9.611 0 6.756-8.815 12.411-20.726 14.024v-2.422a1.968 1.968 0 0 1 .5-1.221l6.336-6.258a1.983 1.983 0 0 0 .505-1.221v-3.086c0-.4-.27-.562-.594-.358L42.064 39.5c-.333.2-.6.043-.6-.358V26.1a.473.473 0 0 0-.656-.5l-9.056 3.167a1.074 1.074 0 0 0-.652.954v9.429c0 .4-.272.573-.611.387L23.5 35.681a.961.961 0 0 0-1.1.174L21.224 37.1a.7.7 0 0 0 .03.99l9.328 8.56a1.866 1.866 0 0 1 .518 1.2v2.773c-13.63-.888-24.189-6.974-24.189-14.369z" transform="translate(15924 7307)"/></g></svg>