<?xml version="1.0" encoding="iso-8859-1"?>
<!-- Generator: Adobe Illustrator 19.0.0, SVG Export Plug-In . SVG Version: 6.00 Build 0)  -->
<svg xmlns="http://www.w3.org/2000/svg" xmlns:xlink="http://www.w3.org/1999/xlink" version="1.1" id="Capa_1" x="0px" y="0px" viewBox="0 0 510.728 510.728" style="enable-background:new 0 0 510.728 510.728;" xml:space="preserve" width="512px" height="512px">
<g>
	<g>
		<path d="M388.681,2.868C388.182,1.169,386.624,0,384.854,0H265.153c-1.341,0-2.596,0.678-3.336,1.8s-0.857,2.541-0.327,3.772    l34.126,78.92c4.255,7.403,14.16,29.154,8.97,40.711c-3.927,8.752-11.923,21.634-17.947,30.908    c-1.192,1.855-0.67,4.326,1.177,5.518c1.846,1.2,4.309,0.686,5.525-1.169c6.164-9.507,14.385-22.772,18.524-31.983    c7.925-17.644-8.619-46.736-9.126-47.554L271.223,7.98h110.615c5.923,21.112,41.74,153.727,34.298,245.187    c-0.655,8.012-8.549,42.589-22.234,97.36c-0.53,2.135,0.772,4.301,2.907,4.838c0.327,0.078,0.647,0.117,0.967,0.117    c1.792,0,3.421-1.207,3.872-3.024c9.749-39.035,21.555-87.836,22.436-98.637C432.276,153.212,389.118,4.364,388.681,2.868z" fill="#933EC5"/>
	</g>
</g>
<g>
	<g>
		<path d="M396.012,368.667c-0.102-0.139-10.7-14.121-20.971-25.6c-13.326-14.884-20.504-44.171-27.447-72.482    c-5.269-21.526-10.248-41.85-17.792-55.114c-17.418-30.627-45.543-46.704-46.735-47.374c-1.137-0.639-2.517-0.685-3.693-0.117    c-1.66,0.803-40.618,20.122-42.153,60.303c-0.935,24.782,13.342,43.751,27.144,62.095c8.354,11.097,16.241,21.588,19.935,32.49    c5.573,16.467,7.715,57.957,9.601,94.561c1.481,28.601,2.752,53.305,5.409,64.955c4.457,19.576,24.478,28.344,42.348,28.344    c12.149,0,20.986-4.129,23.065-10.778c8.424-27.004,31.039-123.856,31.998-127.971    C396.987,370.827,396.729,369.61,396.012,368.667z M357.103,497.566c-0.795,2.549-6.788,5.182-15.445,5.182    c-14.222,0-31.102-6.928-34.57-22.139c-2.502-10.973-3.819-36.535-5.214-63.592c-1.917-37.127-4.092-79.193-10.014-96.705    c-4.107-12.125-12.368-23.105-21.119-34.734c-12.968-17.23-26.372-35.045-25.538-56.998c1.161-30.635,28.358-48.177,35.794-52.409    c6.397,4.029,28.008,18.875,41.871,43.245c6.991,12.297,11.845,32.1,16.981,53.063c7.17,29.271,14.589,59.539,29.248,75.912    c8.112,9.064,16.451,19.756,19.42,23.613C385.291,385.775,364.819,472.863,357.103,497.566z" fill="#933EC5"/>
	</g>
</g>
<g>
	<g>
		<path d="M356.721,479.946c-0.678-2.088-2.953-3.256-5.034-2.539c-9.476,3.109-25.975,1.254-36.121-7.17    c-1.69-1.395-4.208-1.178-5.618,0.521c-1.412,1.699-1.178,4.209,0.521,5.619c8.635,7.169,20.737,10.396,31.258,10.396    c4.591,0,8.885-0.615,12.454-1.792C356.269,484.296,357.414,482.044,356.721,479.946z" fill="#933EC5"/>
	</g>
</g>
<g>
	<g>
		<path d="M423.104,183.708c-0.663-2.096-2.892-3.242-5.011-2.595l-78.929,25.078c-2.105,0.67-3.266,2.914-2.595,5.011    c0.537,1.699,2.112,2.782,3.803,2.782c0.397,0,0.803-0.063,1.208-0.187l78.929-25.078    C422.613,188.049,423.774,185.805,423.104,183.708z" fill="#933EC5"/>
	</g>
</g>
<g>
	<g>
		<path d="M424.943,224.996c-0.662-2.097-2.883-3.25-5.011-2.596l-67.013,21.291c-2.105,0.67-3.266,2.915-2.596,5.011    c0.538,1.699,2.113,2.782,3.804,2.782c0.397,0,0.802-0.063,1.208-0.186l67.013-21.291    C424.453,229.337,425.613,227.092,424.943,224.996z" fill="#933EC5"/>
	</g>
</g>
<g>
	<g>
		<path d="M404.93,174.786c-31.203-22.507-68.868-53.734-94.974-75.967c-1.668-1.426-4.201-1.231-5.627,0.452    c-1.426,1.675-1.224,4.192,0.452,5.626c26.216,22.327,64.058,53.702,95.488,76.356c0.701,0.514,1.519,0.756,2.33,0.756    c1.24,0,2.455-0.577,3.235-1.659C407.128,178.565,406.723,176.072,404.93,174.786z" fill="#933EC5"/>
	</g>
</g>
<g>
	<g>
		<path d="M354.127,186.467c-16.194-12.547-34.306-27.198-53.835-43.556c-1.684-1.402-4.2-1.185-5.627,0.499    c-1.41,1.69-1.191,4.208,0.499,5.626c19.607,16.421,37.805,31.134,54.084,43.743c0.725,0.561,1.582,0.834,2.439,0.834    c1.193,0,2.369-0.531,3.157-1.542C356.192,190.324,355.872,187.815,354.127,186.467z" fill="#933EC5"/>
	</g>
</g>
<g>
	<g>
		<path d="M399.545,44.656c-0.398-2.183-2.494-3.577-4.637-3.219c-17.87,3.226-55.791,8.494-108.651,7.162c-0.04,0-0.071,0-0.102,0    c-2.158,0-3.935,1.722-3.99,3.889c-0.054,2.205,1.692,4.036,3.889,4.091c5.705,0.141,11.23,0.203,16.576,0.203    c44.998,0,77.463-4.56,93.696-7.489C398.493,48.903,399.935,46.822,399.545,44.656z" fill="#933EC5"/>
	</g>
</g>
<g>
	<g>
		<path d="M406.558,75.827c-0.405-2.174-2.524-3.577-4.652-3.187c-16.178,3.017-50.569,8.082-99.073,8.082h-2.572    c-2.205,0-3.99,1.785-3.99,3.99c0,2.205,1.785,3.99,3.99,3.99h2.572c49.15,0,84.087-5.151,100.537-8.222    C405.537,80.075,406.963,77.994,406.558,75.827z" fill="#933EC5"/>
	</g>
</g>
<g>
	<g>
		<path d="M259.16,298.296c-2.174-0.56-4.294,0.811-4.801,2.961c-4.13,17.403-8.689,35.858-12.04,49.27    c-0.53,2.135,0.771,4.301,2.907,4.838c0.327,0.078,0.647,0.117,0.966,0.117c1.793,0,3.422-1.207,3.873-3.024    c3.352-13.443,7.926-31.927,12.057-49.361C262.628,300.954,261.304,298.804,259.16,298.296z" fill="#933EC5"/>
	</g>
</g>
<g>
	<g>
		<path d="M269.39,161.864C259.945,81.447,237.33,3.648,237.096,2.869c-0.499-1.699-2.057-2.868-3.827-2.868H113.567    c-1.34,0-2.595,0.678-3.335,1.8c-0.74,1.122-0.857,2.541-0.327,3.772l34.126,78.92c4.255,7.403,14.16,29.154,8.97,40.711    c-3.927,8.752-11.923,21.634-17.939,30.908c-1.2,1.848-0.678,4.326,1.169,5.518c1.847,1.2,4.31,0.686,5.525-1.169    c6.165-9.507,14.386-22.772,18.524-31.983c7.926-17.644-8.619-46.736-9.125-47.554L119.64,7.981h110.616    c4.138,14.722,22.865,83.753,31.203,154.818c0.241,2.025,1.964,3.522,3.959,3.522c0.156,0,0.311-0.008,0.473-0.023    C268.08,166.041,269.639,164.053,269.39,161.864z" fill="#933EC5"/>
	</g>
</g>
<g>
	<g>
		<path d="M244.431,368.667c-0.102-0.139-10.701-14.121-20.972-25.6c-13.326-14.884-20.503-44.171-27.447-72.482    c-5.268-21.526-10.249-41.85-17.792-55.114c-17.418-30.627-45.543-46.704-46.735-47.374c-1.137-0.639-2.525-0.685-3.694-0.117    c-1.659,0.803-40.617,20.122-42.152,60.303c-0.936,24.782,13.342,43.751,27.143,62.095c8.354,11.097,16.241,21.588,19.935,32.49    c5.572,16.467,7.715,57.957,9.601,94.561c1.481,28.601,2.751,53.305,5.408,64.955c4.458,19.576,24.479,28.344,42.348,28.344    c12.149,0,20.987-4.129,23.067-10.778c8.425-27.004,31.04-123.856,31.999-127.971C245.405,370.827,245.148,369.61,244.431,368.667    z M205.521,497.566c-0.795,2.549-6.788,5.182-15.446,5.182c-14.222,0-31.102-6.928-34.57-22.139    c-2.501-10.973-3.818-36.535-5.213-63.592c-1.917-37.127-4.092-79.193-10.015-96.705c-4.106-12.125-12.367-23.105-21.119-34.734    c-12.968-17.23-26.372-35.045-25.538-56.998c1.161-30.635,28.358-48.177,35.793-52.409c6.398,4.029,28.009,18.875,41.873,43.245    c6.99,12.297,11.845,32.1,16.981,53.063c7.17,29.271,14.589,59.539,29.247,75.912c8.113,9.064,16.451,19.756,19.421,23.613    C233.709,385.775,213.236,472.863,205.521,497.566z" fill="#933EC5"/>
	</g>
</g>
<g>
	<g>
		<path d="M205.138,479.946c-0.685-2.088-2.946-3.256-5.034-2.539c-9.469,3.109-25.975,1.254-36.121-7.17    c-1.691-1.395-4.208-1.178-5.619,0.521c-1.411,1.699-1.177,4.209,0.522,5.619c8.635,7.169,20.737,10.396,31.258,10.396    c4.591,0,8.885-0.615,12.453-1.792C204.686,484.296,205.831,482.044,205.138,479.946z" fill="#933EC5"/>
	</g>
</g>
<g>
	<g>
		<path d="M237.947,194.376c-0.662-2.096-2.876-3.242-5.011-2.595l-45.355,14.41c-2.105,0.67-3.266,2.914-2.596,5.011    c0.538,1.699,2.112,2.782,3.803,2.782c0.398,0,0.803-0.063,1.208-0.188l45.356-14.409    C237.456,198.717,238.617,196.472,237.947,194.376z" fill="#933EC5"/>
	</g>
</g>
<g>
	<g>
		<path d="M229.055,239.07c-0.663-2.096-2.892-3.258-5.011-2.595l-22.709,7.216c-2.104,0.67-3.265,2.915-2.595,5.011    c0.538,1.699,2.112,2.782,3.803,2.782c0.398,0,0.803-0.063,1.208-0.186l22.709-7.217    C228.564,243.411,229.725,241.166,229.055,239.07z" fill="#933EC5"/>
	</g>
</g>
<g>
	<g>
		<path d="M250.906,173.008c-30.806-22.413-67.324-52.712-92.535-74.19c-1.667-1.426-4.2-1.231-5.626,0.452    c-1.426,1.675-1.223,4.192,0.452,5.626c25.32,21.563,62.009,52.003,93.018,74.564c0.709,0.514,1.528,0.764,2.346,0.764    c1.232,0,2.448-0.569,3.226-1.644C253.08,176.803,252.691,174.301,250.906,173.008z" fill="#933EC5"/>
	</g>
</g>
<g>
	<g>
		<path d="M202.543,186.467c-16.193-12.547-34.305-27.198-53.834-43.556c-1.684-1.402-4.201-1.185-5.627,0.499    c-1.41,1.69-1.192,4.208,0.499,5.626c19.607,16.421,37.804,31.134,54.084,43.743c0.724,0.561,1.582,0.834,2.439,0.834    c1.193,0,2.369-0.531,3.156-1.542C204.608,190.324,204.289,187.815,202.543,186.467z" fill="#933EC5"/>
	</g>
</g>
<g>
	<g>
		<path d="M247.962,44.656c-0.397-2.183-2.517-3.577-4.637-3.219c-17.87,3.226-55.783,8.494-108.651,7.162    c-2.432,0.032-4.037,1.691-4.092,3.889c-0.054,2.205,1.692,4.036,3.889,4.091c5.705,0.141,11.23,0.203,16.576,0.203    c44.997,0,77.463-4.56,93.696-7.489C246.909,48.903,248.352,46.822,247.962,44.656z" fill="#933EC5"/>
	</g>
</g>
<g>
	<g>
		<path d="M254.975,75.827c-0.405-2.174-2.525-3.577-4.652-3.187c-16.179,3.017-50.57,8.082-99.074,8.082h-2.572    c-2.205,0-3.99,1.785-3.99,3.99c0,2.205,1.784,3.99,3.99,3.99h2.572c49.151,0,84.088-5.151,100.538-8.222    C253.954,80.075,255.38,77.994,254.975,75.827z" fill="#933EC5"/>
	</g>
</g>
<g>
</g>
<g>
</g>
<g>
</g>
<g>
</g>
<g>
</g>
<g>
</g>
<g>
</g>
<g>
</g>
<g>
</g>
<g>
</g>
<g>
</g>
<g>
</g>
<g>
</g>
<g>
</g>
<g>
</g>
</svg>
