<svg xmlns="http://www.w3.org/2000/svg" viewBox="-10048 3814 22.401 31.359">
  <defs>
    <style>
      .cls-1 {
        fill: #cc0ea0;
      }
    </style>
  </defs>
  <path id="feather" class="cls-1" d="M6.806,31.307c.491-1.571,1.232-3.782,2.226-6.979,4.331-.686,6.123.546,8.874-4.366-2.232.683-4.923-1.267-4.779-2.114s6.261.61,10.266-5.077c-5.048,1.114-6.662-1.338-6.011-1.707,1.5-.854,5.962-.355,8.339-2.67,1.226-1.192,1.8-4.09,1.3-5.123-.6-1.25-4.25-3.114-6.262-2.938S15.59,8,14.653,7.939s-1.125-3.357.51-6.421c-1.723.763-4.882,3.134-5.872,5.162-1.845,3.771.173,12.426-.474,12.733s-2.826-3.97-3.475-5.91c-.888,2.974-.909,5.954,1.685,9.91a27.353,27.353,0,0,0-1.594,7.106c-.038,1.214,1.158,1.475,1.374.789Z" transform="translate(-10052.801 3813.679)"/>
</svg>
