<svg xmlns="http://www.w3.org/2000/svg" viewBox="-9542 6194 31.68 28.478">
  <defs>
    <style>
      .cls-1 {
        fill: #cc0ea0;
      }
    </style>
  </defs>
  <path id="swarm" class="cls-1" d="M16.458,30.114a38.094,38.094,0,0,1-5.883-1.477c-.074-.024-1.25-.451-1.611-.592a.892.892,0,0,1-.507-1.136c.138-.36.606-1.518.638-1.59a37.761,37.761,0,0,1,2.872-5.406,14.643,14.643,0,0,0,4.492,10.2Zm-.181-18.871C11.811,2.141,1.893,2.465.328,6.534c-1.2,3.123,4.056,10.563,16.155,5.19l.006,0c-.042-.075-.182-.4-.213-.478Zm2.219-.355a0,0,0,0,0,0,0c6.834-3.035,5.878-8.306,4.11-8.982-2.379-.91-6.7,2.6-4.235,8.715C18.4,10.662,18.48,10.843,18.5,10.888Zm12.565,6.664a8.909,8.909,0,0,0-5.141-4.774,1.989,1.989,0,0,0-.677-.117A2.432,2.432,0,0,0,22.888,14.8a12,12,0,0,0,1.088,5.949,12,12,0,0,0,3.632,4.731,2.39,2.39,0,0,0,3.542-.866,8.866,8.866,0,0,0-.09-7.064Zm-5.186,10.19a14.788,14.788,0,0,1-4.5-5.834,14.735,14.735,0,0,1-1.323-7.354,5.015,5.015,0,0,1,.576-1.926c-.056.014-.178.043-.182.045A9.374,9.374,0,0,0,17.6,13.927a6.948,6.948,0,0,0-2.835,3.483,5.349,5.349,0,0,0-.258,1.224,12.144,12.144,0,0,0,4.559,10.437,6.889,6.889,0,0,0,3.872,1.168,8.049,8.049,0,0,0,3.6-.936c.347-.176,1.112-.653,1.162-.686a5.082,5.082,0,0,1-1.821-.875Z" transform="translate(-9542.16 6192.239)"/>
</svg>
